<svg width="30" height="26" viewBox="0 0 30 26" fill="none" xmlns="http://www.w3.org/2000/svg">
<path d="M29.6334 13.3851L18.3834 24.6351C18.1488 24.8696 17.8307 25.0014 17.499 25.0014C17.1673 25.0014 16.8492 24.8696 16.6146 24.6351C16.3801 24.4005 16.2483 24.0824 16.2483 23.7507C16.2483 23.419 16.3801 23.1009 16.6146 22.8663L25.7318 13.7507H1.24902C0.917503 13.7507 0.599561 13.619 0.36514 13.3846C0.13072 13.1502 -0.000976562 12.8322 -0.000976562 12.5007C-0.000976562 12.1692 0.13072 11.8512 0.36514 11.6168C0.599561 11.3824 0.917503 11.2507 1.24902 11.2507H25.7318L16.6146 2.13507C16.3801 1.90052 16.2483 1.5824 16.2483 1.25069C16.2483 0.91899 16.3801 0.600871 16.6146 0.36632C16.8492 0.131769 17.1673 0 17.499 0C17.8307 0 18.1488 0.131769 18.3834 0.36632L29.6334 11.6163C29.7496 11.7324 29.8418 11.8703 29.9047 12.022C29.9676 12.1738 30 12.3364 30 12.5007C30 12.665 29.9676 12.8276 29.9047 12.9794C29.8418 13.1311 29.7496 13.269 29.6334 13.3851Z" fill="white"/>
</svg>
