<svg width="26" height="30" viewBox="0 0 26 30" fill="none" xmlns="http://www.w3.org/2000/svg">
<path d="M13.8844 0.365623L25.1344 11.6156C25.3689 11.8502 25.5007 12.1683 25.5007 12.5C25.5007 12.8317 25.3689 13.1498 25.1344 13.3844C24.8998 13.6189 24.5817 13.7507 24.25 13.7507C23.9183 13.7507 23.6002 13.6189 23.3656 13.3844L14.25 4.26719L14.25 28.75C14.25 29.0815 14.1183 29.3995 13.8839 29.6339C13.6495 29.8683 13.3315 30 13 30C12.6685 30 12.3505 29.8683 12.1161 29.6339C11.8817 29.3995 11.75 29.0815 11.75 28.75L11.75 4.26719L2.63437 13.3844C2.39982 13.6189 2.0817 13.7507 1.75 13.7507C1.41829 13.7507 1.10017 13.6189 0.865624 13.3844C0.631073 13.1498 0.499304 12.8317 0.499304 12.5C0.499304 12.1683 0.631073 11.8502 0.865624 11.6156L12.1156 0.365623C12.2317 0.249402 12.3696 0.157205 12.5213 0.0942988C12.6731 0.0313925 12.8357 -0.000982824 13 -0.000982831C13.1643 -0.000982838 13.3269 0.0313925 13.4787 0.0942987C13.6304 0.157205 13.7683 0.249402 13.8844 0.365623Z" fill="white"/>
</svg>
