<svg width="484" height="866" viewBox="0 0 484 866" fill="none" xmlns="http://www.w3.org/2000/svg">
<g filter="url(#filter0_d_14_159)">
<path d="M218.8 312H749.8V385.2H218.8V312ZM342.4 584.4H620.8V657.6H342.4V584.4ZM445 195.6H521.8V759H445V195.6ZM423.4 338.4L489.4 359.4C437.8 490.2 352.6 604.8 247.6 670.8C235.6 652.8 211.6 625.2 195.4 610.8C293.8 556.8 380.8 448.8 423.4 338.4ZM543.4 340.2C587.2 447 674.8 551.4 775.6 603.6C757.6 618.6 731.8 648.6 719.8 669C614.2 604.2 530.2 489.6 478 361.8L543.4 340.2Z" fill="#302626"/>
</g>
<defs>
<filter id="filter0_d_14_159" x="0.399994" y="0.599976" width="970.2" height="953.4" filterUnits="userSpaceOnUse" color-interpolation-filters="sRGB">
<feFlood flood-opacity="0" result="BackgroundImageFix"/>
<feColorMatrix in="SourceAlpha" type="matrix" values="0 0 0 0 0 0 0 0 0 0 0 0 0 0 0 0 0 0 127 0" result="hardAlpha"/>
<feOffset/>
<feGaussianBlur stdDeviation="97.5"/>
<feComposite in2="hardAlpha" operator="out"/>
<feColorMatrix type="matrix" values="0 0 0 0 0.772549 0 0 0 0 0.168627 0 0 0 0 0.2 0 0 0 0.4 0"/>
<feBlend mode="normal" in2="BackgroundImageFix" result="effect1_dropShadow_14_159"/>
<feBlend mode="normal" in="SourceGraphic" in2="effect1_dropShadow_14_159" result="shape"/>
</filter>
</defs>
</svg>
