<svg version="1.2" xmlns="http://www.w3.org/2000/svg" viewBox="0 0 30 26" width="30" height="26">
	<title>arrow-right-svg</title>
	<style>
		.s0 { fill: #ffffff } 
	</style>
	<path id="Layer" class="s0" d="m0.4 11.6l11.2-11.2c0.3-0.3 0.6-0.4 0.9-0.4 0.3 0 0.6 0.1 0.9 0.4 0.2 0.2 0.4 0.5 0.4 0.9 0 0.3-0.2 0.6-0.4 0.8l-9.1 9.2h24.5c0.3 0 0.6 0.1 0.8 0.3 0.3 0.3 0.4 0.6 0.4 0.9 0 0.3-0.1 0.7-0.4 0.9-0.2 0.2-0.5 0.4-0.8 0.4h-24.5l9.1 9.1c0.2 0.2 0.4 0.5 0.4 0.9 0 0.3-0.2 0.6-0.4 0.8-0.3 0.3-0.6 0.4-0.9 0.4-0.3 0-0.6-0.1-0.9-0.4l-11.2-11.2q-0.2-0.2-0.3-0.4-0.1-0.3-0.1-0.5 0-0.2 0.1-0.5 0.1-0.2 0.3-0.4z"/>
</svg>