<svg width="30" height="26" viewBox="0 0 30 26" fill="none" xmlns="http://www.w3.org/2000/svg">
<path d="M29.6344 13.3865L18.3844 24.6365C18.1498 24.8711 17.8317 25.0029 17.5 25.0029C17.1683 25.0029 16.8502 24.8711 16.6156 24.6365C16.3811 24.402 16.2493 24.0839 16.2493 23.7522C16.2493 23.4205 16.3811 23.1023 16.6156 22.8678L25.7328 13.7522H1.25C0.918479 13.7522 0.600537 13.6205 0.366117 13.386C0.131696 13.1516 0 12.8337 0 12.5022C0 12.1706 0.131696 11.8527 0.366117 11.6183C0.600537 11.3839 0.918479 11.2522 1.25 11.2522H25.7328L16.6156 2.13653C16.3811 1.90198 16.2493 1.58386 16.2493 1.25216C16.2493 0.920455 16.3811 0.602336 16.6156 0.367785C16.8502 0.133234 17.1683 0.00146484 17.5 0.00146484C17.8317 0.00146484 18.1498 0.133234 18.3844 0.367785L29.6344 11.6178C29.7506 11.7339 29.8428 11.8717 29.9057 12.0235C29.9686 12.1752 30.001 12.3379 30.001 12.5022C30.001 12.6664 29.9686 12.8291 29.9057 12.9808C29.8428 13.1326 29.7506 13.2704 29.6344 13.3865Z" fill="#C52B33"/>
</svg>
