<svg width="28" height="28" viewBox="0 0 28 28" fill="none" xmlns="http://www.w3.org/2000/svg">
<path d="M27.5 10.625C27.5 10.9234 27.3815 11.2095 27.1705 11.4205C26.9595 11.6315 26.6734 11.75 26.375 11.75C26.0766 11.75 25.7905 11.6315 25.5795 11.4205C25.3685 11.2095 25.25 10.9234 25.25 10.625V4.34188L15.9223 13.6709C15.7112 13.882 15.4249 14.0006 15.1264 14.0006C14.8279 14.0006 14.5416 13.882 14.3305 13.6709C14.1194 13.4598 14.0008 13.1735 14.0008 12.875C14.0008 12.5765 14.1194 12.2902 14.3305 12.0791L23.6581 2.75H17.375C17.0766 2.75 16.7905 2.63147 16.5795 2.42049C16.3685 2.20952 16.25 1.92337 16.25 1.625C16.25 1.32663 16.3685 1.04048 16.5795 0.829505C16.7905 0.618527 17.0766 0.5 17.375 0.5H26.375C26.6734 0.5 26.9595 0.618527 27.1705 0.829505C27.3815 1.04048 27.5 1.32663 27.5 1.625V10.625ZM21.875 14C21.5766 14 21.2905 14.1185 21.0795 14.3295C20.8685 14.5405 20.75 14.8266 20.75 15.125V25.25H2.75V7.25H12.875C13.1734 7.25 13.4595 7.13147 13.6705 6.9205C13.8815 6.70952 14 6.42337 14 6.125C14 5.82663 13.8815 5.54048 13.6705 5.3295C13.4595 5.11853 13.1734 5 12.875 5H2.75C2.15326 5 1.58097 5.23705 1.15901 5.65901C0.737053 6.08097 0.5 6.65326 0.5 7.25V25.25C0.5 25.8467 0.737053 26.419 1.15901 26.841C1.58097 27.2629 2.15326 27.5 2.75 27.5H20.75C21.3467 27.5 21.919 27.2629 22.341 26.841C22.7629 26.419 23 25.8467 23 25.25V15.125C23 14.8266 22.8815 14.5405 22.6705 14.3295C22.4595 14.1185 22.1734 14 21.875 14Z" fill="white"/>
</svg>
