<svg width="420" height="953" viewBox="0 0 420 953" fill="none" xmlns="http://www.w3.org/2000/svg">
<g filter="url(#filter0_d_14_158)">
<path d="M-20.8 407H51.8V758H-20.8V407ZM-178.6 482H207.2V547.4H-178.6V482ZM65.6 510.8C98.6 576.2 162.2 642.8 224.6 678.8C208.4 692.6 185.6 718.4 173.6 736.4C110.6 691.4 48.8 610.4 11.6 530.6L65.6 510.8ZM-30.4 505.4L26 525.2C-13 609.8 -79.6 689.6 -150.4 734.6C-161.8 717.2 -184.6 691.4 -200.2 677.6C-131.8 642.2 -65.2 573.8 -30.4 505.4ZM-70.6 284V364.4H105.8V284H-70.6ZM-139 221H177.8V428H-139V221ZM-217.6 195.8L-150.4 217.4C-190.6 319.4 -254.8 426.8 -321.4 494.6C-327.4 477.8 -347.2 438.2 -359.2 420.8C-303.4 366.8 -249.4 281.6 -217.6 195.8ZM-275.2 362L-207.4 293.6L-206.8 294.2V756.2H-275.2V362Z" fill="#302626"/>
</g>
<defs>
<filter id="filter0_d_14_158" x="-554.2" y="0.799988" width="973.8" height="952.2" filterUnits="userSpaceOnUse" color-interpolation-filters="sRGB">
<feFlood flood-opacity="0" result="BackgroundImageFix"/>
<feColorMatrix in="SourceAlpha" type="matrix" values="0 0 0 0 0 0 0 0 0 0 0 0 0 0 0 0 0 0 127 0" result="hardAlpha"/>
<feOffset/>
<feGaussianBlur stdDeviation="97.5"/>
<feComposite in2="hardAlpha" operator="out"/>
<feColorMatrix type="matrix" values="0 0 0 0 0.772549 0 0 0 0 0.168627 0 0 0 0 0.2 0 0 0 0.4 0"/>
<feBlend mode="normal" in2="BackgroundImageFix" result="effect1_dropShadow_14_158"/>
<feBlend mode="normal" in="SourceGraphic" in2="effect1_dropShadow_14_158" result="shape"/>
</filter>
</defs>
</svg>
